<mxfile host="app.diagrams.net" modified="2024-04-23T07:34:28.457Z" agent="Mozilla/5.0 (Windows NT 10.0; Win64; x64) AppleWebKit/537.36 (KHTML, like Gecko) Chrome/123.0.0.0 Safari/537.36" etag="hYzn5ZXYwZ4RNpGvrhUx" version="24.2.7" type="github">
  <diagram name="Page-1" id="90a13364-a465-7bf4-72fc-28e22215d7a0">
    <mxGraphModel dx="3416.5" dy="1613" grid="1" gridSize="10" guides="1" tooltips="1" connect="1" arrows="1" fold="1" page="1" pageScale="1.5" pageWidth="1169" pageHeight="826" background="none" math="0" shadow="0">
      <root>
        <mxCell id="0" style=";html=1;" />
        <mxCell id="1" style=";html=1;" parent="0" />
        <mxCell id="3a17f1ce550125da-13" value="[read]&lt;div&gt;InitializeEquipValue()&lt;/div&gt;" style="edgeStyle=elbowEdgeStyle;rounded=0;html=1;startArrow=none;startFill=0;jettySize=auto;orthogonalLoop=1;fontSize=18;elbow=vertical;" parent="1" edge="1">
          <mxGeometry relative="1" as="geometry">
            <mxPoint x="930" y="514.6842105263158" as="sourcePoint" />
            <mxPoint x="1210" y="514.6842105263158" as="targetPoint" />
            <mxPoint as="offset" />
          </mxGeometry>
        </mxCell>
        <mxCell id="3a17f1ce550125da-2" value="shmem.dat" style="whiteSpace=wrap;html=1;shadow=1;fontSize=18;fillColor=#f5f5f5;strokeColor=#666666;" parent="1" vertex="1">
          <mxGeometry x="787" y="490" width="143" height="50" as="geometry" />
        </mxCell>
        <mxCell id="3a17f1ce550125da-4" value="wcs&amp;nbsp;&lt;div&gt;(c#)&lt;/div&gt;" style="whiteSpace=wrap;html=1;shadow=1;fontSize=18;fillColor=#f5f5f5;strokeColor=#666666;" parent="1" vertex="1">
          <mxGeometry x="1210" y="490" width="120" height="50" as="geometry" />
        </mxCell>
        <mxCell id="3a17f1ce550125da-20" value="[write]&lt;div&gt;4. plc 오더 버퍼에 작번과 목적지 쓰기&lt;br&gt;&lt;div&gt;plcinf[plc_no].order[stn_no,] senddata := work_no&lt;/div&gt;&lt;div&gt;plcinf[plc_no].order[stn_no,]senddata := to_stn&lt;/div&gt;&lt;div&gt;5. bcr 버퍼에 bakcup 바코드 이관&lt;/div&gt;&lt;div&gt;bcrinf[flr_no][bcr_no].backBarcode :=&amp;nbsp;bcrinf[flr_no][bcr_no].barcode&amp;nbsp;&lt;br&gt;&lt;/div&gt;&lt;div&gt;&lt;br&gt;&lt;/div&gt;&lt;/div&gt;" style="edgeStyle=elbowEdgeStyle;rounded=0;html=1;startArrow=none;startFill=0;jettySize=auto;orthogonalLoop=1;fontSize=18;elbow=vertical;spacing=2;" parent="1" source="3a17f1ce550125da-8" target="3a17f1ce550125da-2" edge="1">
          <mxGeometry x="0.0005" relative="1" as="geometry">
            <Array as="points">
              <mxPoint x="757" y="514" />
            </Array>
            <mxPoint as="offset" />
          </mxGeometry>
        </mxCell>
        <mxCell id="3a17f1ce550125da-8" value="&lt;div&gt;&lt;span style=&quot;background-color: initial;&quot;&gt;p_ar_ctrl&lt;/span&gt;&lt;br&gt;&lt;/div&gt;" style="whiteSpace=wrap;html=1;shadow=1;fontSize=18;fillColor=#f5f5f5;strokeColor=#666666;" parent="1" vertex="1">
          <mxGeometry x="260" y="780" width="113" height="50" as="geometry" />
        </mxCell>
        <mxCell id="3a17f1ce550125da-21" value="&lt;div&gt;[write]&lt;/div&gt;1. 공유메모리의 bcrinf에 임의의 바코드 정보 쓰기" style="edgeStyle=elbowEdgeStyle;rounded=0;html=1;startArrow=none;startFill=0;jettySize=auto;orthogonalLoop=1;fontSize=18;elbow=vertical;" parent="1" edge="1">
          <mxGeometry x="0.0014" relative="1" as="geometry">
            <mxPoint x="1300" y="802" as="sourcePoint" />
            <mxPoint x="858.5" y="542" as="targetPoint" />
            <mxPoint as="offset" />
          </mxGeometry>
        </mxCell>
        <mxCell id="3a17f1ce550125da-9" value="p_sy_shmop" style="whiteSpace=wrap;html=1;shadow=1;fontSize=18;fillColor=#f5f5f5;strokeColor=#666666;" parent="1" vertex="1">
          <mxGeometry x="1240" y="800" width="120" height="50" as="geometry" />
        </mxCell>
        <mxCell id="F0hh7EOZXtnr76Y6Oiqe-1" value="PLC" style="whiteSpace=wrap;html=1;shadow=1;fontSize=18;fillColor=#f5f5f5;strokeColor=#666666;" vertex="1" parent="1">
          <mxGeometry x="808.5" y="250" width="100" height="40" as="geometry" />
        </mxCell>
        <mxCell id="F0hh7EOZXtnr76Y6Oiqe-2" value="[read]&lt;div&gt;6. plcinf 오더의 U_COM_WAIT(전송대기) 상태인 workno와 to_stn를 읽어옴&lt;/div&gt;" style="edgeStyle=elbowEdgeStyle;rounded=0;html=1;startArrow=none;startFill=0;jettySize=auto;orthogonalLoop=1;fontSize=18;elbow=vertical;entryX=0.5;entryY=1;entryDx=0;entryDy=0;exitX=0.5;exitY=0;exitDx=0;exitDy=0;" edge="1" parent="1" source="3a17f1ce550125da-2" target="F0hh7EOZXtnr76Y6Oiqe-1">
          <mxGeometry relative="1" as="geometry">
            <mxPoint x="940" y="524.6842105263158" as="sourcePoint" />
            <mxPoint x="1220" y="524.6842105263158" as="targetPoint" />
            <mxPoint as="offset" />
          </mxGeometry>
        </mxCell>
        <mxCell id="F0hh7EOZXtnr76Y6Oiqe-3" value="[read]&lt;div&gt;2. bcr의 readdata와 cnv 입고조건 만족 여부 확인&amp;nbsp;&lt;/div&gt;&lt;div&gt;&amp;nbsp;-&amp;gt; create_store_in 호출&lt;/div&gt;&lt;div&gt;* 공동구 예외 처리는 운영방안 확인&lt;/div&gt;" style="edgeStyle=elbowEdgeStyle;rounded=0;html=1;startArrow=none;startFill=0;jettySize=auto;orthogonalLoop=1;fontSize=18;elbow=vertical;entryX=1;entryY=0.5;entryDx=0;entryDy=0;exitX=0.5;exitY=1;exitDx=0;exitDy=0;" edge="1" parent="1" source="3a17f1ce550125da-2" target="3a17f1ce550125da-8">
          <mxGeometry x="-0.0014" relative="1" as="geometry">
            <mxPoint x="869" y="500" as="sourcePoint" />
            <mxPoint x="869" y="300" as="targetPoint" />
            <mxPoint as="offset" />
          </mxGeometry>
        </mxCell>
        <mxCell id="F0hh7EOZXtnr76Y6Oiqe-4" value="DB" style="shape=cylinder3;whiteSpace=wrap;html=1;boundedLbl=1;backgroundOutline=1;size=15;" vertex="1" parent="1">
          <mxGeometry x="-120" y="470" width="60" height="70" as="geometry" />
        </mxCell>
        <mxCell id="F0hh7EOZXtnr76Y6Oiqe-5" value="[write]&lt;div&gt;3. (p_create_store_in)&lt;/div&gt;&lt;div&gt;t_work 테이블에 workno에 해당하는 작업(입고 예약) 생성&lt;/div&gt;" style="edgeStyle=elbowEdgeStyle;rounded=0;html=1;startArrow=none;startFill=0;jettySize=auto;orthogonalLoop=1;fontSize=18;elbow=vertical;entryX=0.5;entryY=1;entryDx=0;entryDy=0;exitX=0.5;exitY=0;exitDx=0;exitDy=0;entryPerimeter=0;" edge="1" parent="1" source="3a17f1ce550125da-8" target="F0hh7EOZXtnr76Y6Oiqe-4">
          <mxGeometry relative="1" as="geometry">
            <mxPoint x="869" y="500" as="sourcePoint" />
            <mxPoint x="869" y="300" as="targetPoint" />
            <mxPoint as="offset" />
          </mxGeometry>
        </mxCell>
      </root>
    </mxGraphModel>
  </diagram>
</mxfile>
